{"title":"Delhi Belly (2011) DVDRip Dual Audio[Eng-Hindi]-Deadman[TDT].mkv","uid":6699649,"size":799806254,"categoryP":"video","categoryS":"movies","magnet":"?xt=urn:btih:d32b4aeb13e630bec1f9166c071e09a393f6579d&amp;dn=Delhi+Belly+%282011%29+DVDRip+Dual+Audio%5BEng-Hindi%5D-Deadman%5BTDT%5D.mkv&amp;tr=udp%3A%2F%2Ftracker.openbittorrent.com%3A80&amp;tr=udp%3A%2F%2Fopen.demonii.com%3A1337&amp;tr=udp%3A%2F%2Ftracker.coppersurfer.tk%3A6969&amp;tr=udp%3A%2F%2Fexodus.desync.com%3A6969","seeders":0,"leechers":0,"uploader":"laazara","files":-1,"time":1316912222,"description":"Format : Matroska\nFile size : 763 MiB\nDuration : 1h 42mn\nOverall bit rate : 1 038 Kbps\nMovie name : Delhi Belly (2011) DVDRip Dual Audio[Eng-Hindi]-Deadman[TDT]\n\nVideo\nID : 1\nFormat : MPEG-4 Visual\nFormat profile : Advanced Simple@L5\nFormat settings, BVOP : Yes\nFormat settings, QPel : No\nFormat settings, GMC : No warppoints\nFormat settings, Matrix : Custom\nCodec ID : XVID\nCodec ID/Hint : XviD\nDuration : 1h 42mn\nBit rate : 825 Kbps\nWidth : 672 pixels\nHeight : 288 pixels\nDisplay aspect ratio : 2.35:1\nFrame rate : 23.976 fps\nColor space : YUV\nChroma subsampling : 4:2:0\nBit depth : 8 bits\nScan type : Progressive\nCompression mode : Lossy\nBits/(Pixel*Frame) : 0.178\nStream size : 606 MiB (80%)\nTitle : Deadman\nWriting library : XviD 1.2.1 (UTC 2008-12-04)\n\nAudio #1\nID : 2\nFormat : MPEG Audio\nFormat version : Version 1\nFormat profile : Layer 3\nMode : Joint stereo\nMuxing mode : Header stripping\nCodec ID : A_MPEG/L3\nCodec ID/Hint : MP3\nDuration : 1h 41mn\nBit rate mode : Variable\nBit rate : 96.0 Kbps\nChannel(s) : 2 channels\nSampling rate : 32.0 KHz\nCompression mode : Lossy\nStream size : 70.0 MiB (9%)\nTitle : Deadman\nWriting library : LAME3.90.\nEncoding settings : -m j -V 4 -q 2 -lowpass 15.4 --abr 96\nLanguage : Hindi\n\nAudio #2\nID : 3\nFormat : MPEG Audio\nFormat version : Version 1\nFormat profile : Layer 3\nMode : Joint stereo\nMuxing mode : Header stripping\nCodec ID : A_MPEG/L3\nCodec ID/Hint : MP3\nDuration : 1h 41mn\nBit rate mode : Variable\nBit rate : 96.0 Kbps\nChannel(s) : 2 channels\nSampling rate : 32.0 KHz\nCompression mode : Lossy\nDelay relative to video : 9s 144ms\nStream size : 70.0 MiB (9%)\nTitle : Deadman\nWriting library : LAME3.90.\nEncoding settings : -m j -V 4 -q 2 -lowpass 15.4 --abr 96\nLanguage : English","torrent":{"xt":"urn:btih:d32b4aeb13e630bec1f9166c071e09a393f6579d","amp;dn":"Delhi+Belly+%282011%29+DVDRip+Dual+Audio%5BEng-Hindi%5D-Deadman%5BTDT%5D.mkv","amp;tr":["udp%3A%2F%2Ftracker.openbittorrent.com%3A80","udp%3A%2F%2Fopen.demonii.com%3A1337","udp%3A%2F%2Ftracker.coppersurfer.tk%3A6969","udp%3A%2F%2Fexodus.desync.com%3A6969"],"infoHash":"d32b4aeb13e630bec1f9166c071e09a393f6579d","infoHashBuffer":{"type":"Buffer","data":[211,43,74,235,19,230,48,190,193,249,22,108,7,30,9,163,147,246,87,157]},"announce":[],"urlList":[]}}